<svg id="b43f9c28-30f7-4007-adcc-ada24843bae0" data-name="Ebene 1" xmlns="http://www.w3.org/2000/svg"
     viewBox="0 0 118.1 100.95">
    <defs>
        <style>.b6f46164-0227-4ce7-a31a-94f22a963628{fill:#000;}.a2843569-b91c-4766-ad08-dfa08a5c6174{fill:#fff;}
        </style>
    </defs>
    <path class="b6f46164-0227-4ce7-a31a-94f22a963628"
          d="M1012.36,488.08h1v1.2C1011,495.14,1006.9,498,1004,503l3.36-1.68v2.4l2.16-1.44c1.11,1.52,2.68,1.8,2.4,4.08l-1,.48-2.64-1a3.35,3.35,0,0,1-1.68,2.4l-1.2-.24-.72-2.16-.48.24-4.08,5.28c2.39-1.29,4.79-2.35,7.44-1.44v.24l-1.2,1.68a12.27,12.27,0,0,0-7.68,3.36l-.48-.24v-.24l1-1.68-1,.24-.72-.48H997c2.36-3.13,5.47-5.5,7.68-8.88h-2.4c.56-2.15,2.19-2.62,3.36-4.08C1008.31,496.5,1011.2,492.8,1012.36,488.08Z"
          transform="translate(-901.46 -488.08)"/>
    <path class="b6f46164-0227-4ce7-a31a-94f22a963628"
          d="M968.68,505.12l-1.2.24H968a15.11,15.11,0,0,1,3.36,2.4l-.24,1.68-3.84,3.6.48.72,4.32,2.4c.51-2.92,5.17-6,7-8.16l2.16.48,2.4,6-1.2,7.68.48.48.48-.24c.88-2.93,3-4.07,4.08-6.24,1.88-3.9-3.16-14.36-4.8-16.08l.48-1c2.28,1.73,6.55,15.22,6.24,18.72,1.39-.71,2.77-1,3.84.24l-1.44,4.08c2.55-.19,3.52.27,3.12,2.4-1.24,1.68-2.19,1.52-4.08,2.64l-4.8,6.72,9.12-4.8c-.38-.75-.66-.94-.48-1.68L998,523.6l-.24-.48-2.16-.24c-.12-2.89,3.32-7.26,5.76-8.4l.48.48-1,1.2c2.12-.8,1.67-.22,3.6.48-.36-2.07.5-2.89,2.16-3.6h1.2c.14-1.75,1.06-3.71,2.64-4.08.89,1,.12,1.38,1.2,2.16l1.2-1.44h2.64l.24,1.2,1.68-1.68h.48l1.44,1.92v1l-.72.48c-1.7-.71-1.53-.53-2.88.48.62,1.59,0,1.79-.48,3.36a7.56,7.56,0,0,1,1.68,2.4,1.39,1.39,0,0,1,1.68.24l-.48.72c-8,1.53-21.59,9-28.32,13-2.77,1.62-5.81,4.52-9.36,5,.73-1.92,3-2,4.56-3.12l-5.76-1.44c-3.67,8.34-7.4,34-13.68,37.68-2.65,1.16-6-.35-7.68-1-.93,3.56-5.82,6.09-7.92,8.88,3.53-1.73,5-6.66,8.88-7.92v1c-5.27,4.09-12.5,14-18,16.56-2.11,1-8.79,1-10.08-1-.69-1.83.85-3.89,1.68-5,1.77.3,1.35.71,2.64,0l1.68-7.2,3.84-5.76c1.45-6.62-7.12-12.33-5.52-18,1-3.64,5.5-7,7.68-9.84-.14-2.3-.29-4.08.48-5.76a34.74,34.74,0,0,1-3.36-7.92h-.24c-3.2,1.93-7.81,2.94-11,3.36l-1.68,5-5.28-.24c-2.56-1.23-2.52-4.46-4.56-6-3.46-2.61-7-1.46-8.88-5.76l-.24-.24c1.29-2.07,3.7-2,6.72-1.68-.56-2.24-2.49-3.87-1.44-6.24,3.66,0,5,2.1,7.2,3.6a12.22,12.22,0,0,1,1.44-5.52h1.44c1.06.24,1,.16,1.44,1l.72,6.72c4.27-2.63,8.34-5.34,13.44-7.2l-.48-.24c-1-1-2.2-1.23-2.88-2.64-1-3.38,3.3-4.72,6.72-4.56-.16-2.56-.23-4.47,1.44-5.28l6.48-1c1.5-.45,2.92-2.28,4.08-2.88.66-.34.32.08,1,.24,1.47,3.32,5.94,1.64,9.6,2.88l.72,2.64,1.68-.24c-1.08-2.36-.88-3.29.24-5.28-1.19-1.29-2.56-1.37-4.08-2.4-1-.71-.43-1.53-1-1.92-1.15-.49-2.41.06-3.36.48l-.72-.24c.29-1.73,1-1.79,1.44-3.36-2.62,1.59-3.67,4.25-6,5.76l-.48-.24-2.4-3.6h-.24v.24l.48,3.12c-2.65-.85-3.46-2.92-7-3.36v.24l.48.72,1.44,1.2-.48.72c-2.23-.05-4.06.66-4.56,2.4,1.4.58,1,.37.48,1.44-1.71.6-2.38,1.8-3.12,3.36l.24.72,1.92,1.92v.72h-1c-1-1.23-2-1.7-2.4-3.6l2.88-3.84c-1.29-2.28,1.9-3.27,3.84-4.32-.75-1-1.23-1-1.44-2.64a19.53,19.53,0,0,1,7.2,1.92l-.48-3.12h1c5.28,5.65,3.87,2,10.32-1l1,1-1,1.92,5,1-1,1.68a5.6,5.6,0,0,1,4.32,4.08C966.92,500.89,968.32,502.66,968.68,505.12Z"
          transform="translate(-901.46 -488.08)"/>
    <path class="b6f46164-0227-4ce7-a31a-94f22a963628"
          d="M1015.72,490.24h1.2c.59,1.48,1.16,1.32,1.2,3.6.67,1.75,1.65,3.92,1,5.52l-.48-.24-.48-2.16-1.92-.48-.72,1.44-1-.72V497c.11-1.89.83-1.64,1.2-2.64Z"
          transform="translate(-901.46 -488.08)"/>
    <path class="b6f46164-0227-4ce7-a31a-94f22a963628"
          d="M932.44,497.92h.48c-.53,1.35-8.14,15-8.88,15.6v-1.2C926.85,507.44,929.44,502.47,932.44,497.92Z"
          transform="translate(-901.46 -488.08)"/>
    <path class="a2843569-b91c-4766-ad08-dfa08a5c6174" d="M954.76,499.84l-.72.48v.24h1.2Z"
          transform="translate(-901.46 -488.08)"/>
    <path class="b6f46164-0227-4ce7-a31a-94f22a963628"
          d="M1018.36,500.32l1.2.24v7.2h-.24l-.72-1.68c-.7.41-.9.71-1.68.48l-1.68-1.2v-1.44l1.44-1.44,1.2.48A5.17,5.17,0,0,1,1018.36,500.32Z"
          transform="translate(-901.46 -488.08)"/>
    <path class="b6f46164-0227-4ce7-a31a-94f22a963628"
          d="M1013.56,501.28a17.34,17.34,0,0,0,2.4,1.2l-1,1.2h-.24l-1.68-1.2Z" transform="translate(-901.46 -488.08)"/>
    <path class="a2843569-b91c-4766-ad08-dfa08a5c6174"
          d="M958.12,501.76c1,.89,4.14.84,5.28,1.44l-.72,5.52-2.88.72v.48h1.68l1.92-1.2c.22-1.7,1.08-4,.48-5.52-.39-.82-.39-.8-1.2-1.2Z"
          transform="translate(-901.46 -488.08)"/>
    <path class="b6f46164-0227-4ce7-a31a-94f22a963628" d="M981.16,502c2.18.75,3.21,5.73,3.6,8.16h-.24l-.24-.48Z"
          transform="translate(-901.46 -488.08)"/>
    <path class="a2843569-b91c-4766-ad08-dfa08a5c6174"
          d="M944.92,502.72l-1.44.72c-.09,1.78-.05,3.42.72,4.32-.12-1.74-.36-3.08.24-4.32l1.2-.72Z"
          transform="translate(-901.46 -488.08)"/>
    <path class="b6f46164-0227-4ce7-a31a-94f22a963628"
          d="M931.72,503l-3.12,7.68h-.24v-1.2A27.15,27.15,0,0,1,931.72,503Z" transform="translate(-901.46 -488.08)"/>
    <path class="a2843569-b91c-4766-ad08-dfa08a5c6174"
          d="M954.76,503.2c-2.59.91-7.88-.33-9.36,1.68l.24,3.84,1,.48c1.24-.29,3-.28,3.84-1,1.15-.81,1.5-2.58,2.16-3.84l4.8-.24c1.81,1.51,1.54,3,4.32,3.84.12-1.74.62-3.32-.48-4.08Z"
          transform="translate(-901.46 -488.08)"/>
    <path class="b6f46164-0227-4ce7-a31a-94f22a963628" d="M959.32,503.68c.75.72.66.76.48,1.92h-.24l-.72-.48v-.24Z"
          transform="translate(-901.46 -488.08)"/>
    <path class="b6f46164-0227-4ce7-a31a-94f22a963628" d="M949.72,504.4c.95.41.67.13,1,1.2l-.72.48-.72-.48v-.24Z"
          transform="translate(-901.46 -488.08)"/>
    <path class="a2843569-b91c-4766-ad08-dfa08a5c6174"
          d="M954.52,505.12c-1.17,1.07-2.16,4-3.6,4.56l-5,.72h.48c5.07,2.15,5.87-2.89,7.92-4.56h2.64l-.48-.72Z"
          transform="translate(-901.46 -488.08)"/>
    <path class="a2843569-b91c-4766-ad08-dfa08a5c6174"
          d="M955.24,506.32c-2.57,4.51-3.87,4.7-10.08,5.76v1.44c1.65,3.63,4.61,11.35,9.6,11.52,2.41-1.2,8.61-12.3,6.72-14.16-1.58.5-1.79.39-2.88-.48l-4.32,1.68.48-1.2,4.8-2.4-.48-.72Z"
          transform="translate(-901.46 -488.08)"/>
    <path class="a2843569-b91c-4766-ad08-dfa08a5c6174"
          d="M965.8,506.32l2.16,1-.24.48-2.88-.24c-.6,2.44-.65,4.64-1.68,6.72,2.11-.71,6.62-4,7.2-6.24A6.92,6.92,0,0,0,965.8,506.32Z"
          transform="translate(-901.46 -488.08)"/>
    <path class="a2843569-b91c-4766-ad08-dfa08a5c6174"
          d="M939.88,508.24c-1.63.86-2.5,1-3.36,2.64,1.06,2,4.56,5,7.68,4.08v-.24c-.45-2-.14-3.06-1-4.32a5.71,5.71,0,0,0-5.52.48c.88-2.25,2.85-1.53,5-2.4Z"
          transform="translate(-901.46 -488.08)"/>
    <path class="a2843569-b91c-4766-ad08-dfa08a5c6174"
          d="M979.48,509.44l-5,7-2.16,12.48-6.48,23c-1.29,3.36-6.52,14.42-6,17.28h.48c1.53,1,3.72.56,5.52,0,1.23-3.06,3.28-6.06,4.56-9.36l9.6-34.32C981.23,520.91,983.79,512.43,979.48,509.44Z"
          transform="translate(-901.46 -488.08)"/>
    <path class="b6f46164-0227-4ce7-a31a-94f22a963628"
          d="M931.72,510.4h.72c-.33.46,0,.14-.48.48l-3.36,2.4C929.23,511.53,930.28,511.3,931.72,510.4Z"
          transform="translate(-901.46 -488.08)"/>
    <path class="b6f46164-0227-4ce7-a31a-94f22a963628"
          d="M956.44,512.56l1.44.24c.46,1.64-.1,3.49-.48,5-.83.3-1.92-.3-2.64,0s-.39,1.14-1.68,1.44l-1.68-5,.72-.72Z"
          transform="translate(-901.46 -488.08)"/>
    <path class="a2843569-b91c-4766-ad08-dfa08a5c6174"
          d="M1011.16,512.56c-.82,1.65-2.12,4.29-4.08,4.8l-.48-.24-.24-1.44v.48l-1.44,1.68c-3.52-.65-4.28-.65-7,1.44l-1,2.88a4.13,4.13,0,0,1,2.64.24l1-2.88h.24l1.2,1a4.53,4.53,0,0,1,2.64-1V520l.48,1.92h1.44l1-.24c1.26-1.49,1.08-3.73,3.36-3.6l.24,2.16a3.24,3.24,0,0,1,2.4.24l1.68-.72-1.92-3.36h-1.92c0-1.5.2-2.18,1-2.88l1.2.72,1.2-1V513l-.72-.48A4.19,4.19,0,0,1,1011.16,512.56Z"
          transform="translate(-901.46 -488.08)"/>
    <path class="b6f46164-0227-4ce7-a31a-94f22a963628"
          d="M932.92,513.28l1.2.24-.24.48c-3.06.43-4.14,2.7-6.48,3.84C928.7,515.49,930.79,514.79,932.92,513.28Z"
          transform="translate(-901.46 -488.08)"/>
    <path class="a2843569-b91c-4766-ad08-dfa08a5c6174"
          d="M946.84,549.52c1.4.18,1,.2,1.68,1l.24-1.44c1.21.35,1,.81,1.68,1,1.39-3.17,6.5-6.53,11.28-5.28a8.3,8.3,0,0,1,2.4-8.64l.48.24c-1,1.84-2.09,3.3-2.4,6h.48c.23-1.88.81-3.93,2.4-4.56-1.18,2.92-3.11,7.22-.48,10.08l4.32-16.32h-.48c-3.88-.95-6.81,5.38-10.08,6.48l-.24-.72c1.59-2.06,4.64-3,5.76-5.52,1.62-3.59,1.08-8,3.6-10.56l.48.24-.48,2.88h.24v-.48c.54-.55.35-.61,1.2-1v1.2l-.72,1.68,2.16.72c.48-3,2.09-6.24,1.2-9.6-2.43-.56-3.15-2.26-5.76-2.64L962,516.16v1c2,.9,2.41,6,1.2,8.4h-.24l-4.8-1.92a4.43,4.43,0,0,1-1.44,2.4c-3.69.24-4.48.34-6.72-1.44-2.11.9-2.75,2.34-4.56,3.36l-.72-.48c0-3.22,1.63-10,.48-11.28-1.76.56-4.13-.94-6-.48-4.37,1.06-11.22,4.87-13.68,8.16l.24,1.68c1.47-.89,3.74-3,6.24-1.92l1.2.72c-.08,3.12-1.69,3.84-2.88,5.76,2.79-.65,8.08-2.15,9.84-4.08-.88-1.32-3.36-3.39-1.44-5.28h.24c-.08,2.18.27,3,1.44,3.84-.11-1.59-.5-3.11.24-4.08V521c3.14,4.46-2.18,9.53,4.32,14.4-1.48,2.2-.14,4.51-1,7-3.43,6.6-10.29,6.36-5.28,16.32.91,1.81,1,3.67,2.88,4.56a10.12,10.12,0,0,0,7-1l.24-.48C948.39,557.08,947.13,553.59,946.84,549.52Z"
          transform="translate(-901.46 -488.08)"/>
    <path class="a2843569-b91c-4766-ad08-dfa08a5c6174"
          d="M931.24,524.32c-3.84,0-4,1.62-5.52,3.84l-1-.72-1.2-12h-.72c-1.69,2.66-1,7.14-1.68,11h-.24l-.48-.24c.19-5.58-2.09-8.21-6.24-9.12v.48c-.78,2.92,3.74,6.54,5,8.64v.24h-1c-2.34-2.37-5.17-4.69-8.88-2.4v1c2.4,2.4,5.11,2.09,8.16,4.08,2.13,1.39,2.33,4.76,4.8,6v-1.68c1.6.51,1.55,1.46,3.36,1.92l1.92-5c1.22-1.44,2.92-2.21,4.08-3.84Z"
          transform="translate(-901.46 -488.08)"/>
    <path class="a2843569-b91c-4766-ad08-dfa08a5c6174"
          d="M988.12,516.64a20.29,20.29,0,0,0-4.32,7.92c-1.32-.25-1.51-.81-2.16-1l-2.16,8.4.72.24c1.28.4,3.22.69,4.56,1,1.59-1.57,2.53-4.72,4.32-6s3.45-1.53,4.8-3.12l-.24-1c-2.84.08-4.2,1.32-5.76,2.64l-.48-.24,1.44-2.16c1.76-.81,3-2.9,3.36-5l-.24-.24-1.2.24c-2.26,1.15-3,3.58-4.08,6h-.24a2.35,2.35,0,0,1-.48-1.44C986.65,521.58,989.15,517.77,988.12,516.64Z"
          transform="translate(-901.46 -488.08)"/>
    <path class="b6f46164-0227-4ce7-a31a-94f22a963628" d="M973.24,517.12l-.24,2.4h.24Z"
          transform="translate(-901.46 -488.08)"/>
    <path class="a2843569-b91c-4766-ad08-dfa08a5c6174"
          d="M961,517.84l-1.92,4.56,3.12,1.68h.24C962.89,521.56,962.87,518.8,961,517.84Z"
          transform="translate(-901.46 -488.08)"/>
    <path class="a2843569-b91c-4766-ad08-dfa08a5c6174"
          d="M946.6,518.8c-.49,1.69-1.67,4.71-.72,7l3.36-2.4C948.81,521.85,947.77,519.62,946.6,518.8Z"
          transform="translate(-901.46 -488.08)"/>
    <path class="a2843569-b91c-4766-ad08-dfa08a5c6174"
          d="M972,523.36c-1.4,15.51-9.1,29.32-13,43l.48-.24c2.54-9.65,6.29-19.44,9.6-29.52C970.17,533.47,973.2,527,972,523.36Z"
          transform="translate(-901.46 -488.08)"/>
    <path class="a2843569-b91c-4766-ad08-dfa08a5c6174" d="M966.52,526.24l-1.2,4.8a5.69,5.69,0,0,1,4.08-.72l.24-2.88Z"
          transform="translate(-901.46 -488.08)"/>
    <path class="b6f46164-0227-4ce7-a31a-94f22a963628"
          d="M978.76,538.24c1.25,2.22-4.59,21-6,21.6v-.24C975.18,553.12,978.06,545.82,978.76,538.24Z"
          transform="translate(-901.46 -488.08)"/>
    <path class="b6f46164-0227-4ce7-a31a-94f22a963628"
          d="M915.88,538.72,918,539l9.12,8.4-.48,1h-.24l-8.88-8.16v.24c2.44,4.87,6.83,8.25,9.6,13l-.24.72c-2.23-.81-9.41-11.42-11-13.92h-1c-4.9,3.28-7.93,7.85-13.44,10.56v-1.44c5.17-1.08,9.63-6.25,12-10.32Z"
          transform="translate(-901.46 -488.08)"/>
    <path class="b6f46164-0227-4ce7-a31a-94f22a963628"
          d="M937,539.68c.53,2.71-3.24,7.77-4.08,11.28h-.24C932.91,546.05,935.23,543.12,937,539.68Z"
          transform="translate(-901.46 -488.08)"/>
    <path class="b6f46164-0227-4ce7-a31a-94f22a963628" d="M980.2,542.56l.72.72c-.41,3.18-1.85,9.73-3.84,11.76h-.24Z"
          transform="translate(-901.46 -488.08)"/>
    <path class="b6f46164-0227-4ce7-a31a-94f22a963628"
          d="M932.44,543.28,931,556.48h-.24C930.69,551.41,931.71,547.42,932.44,543.28Z"
          transform="translate(-901.46 -488.08)"/>
    <path class="a2843569-b91c-4766-ad08-dfa08a5c6174"
          d="M961.72,545c-.27.87-.27.66-.72,1.2-6.32-1.75-9.39,4-12,7,.18,3.56-.13,10.89,1.2,13.68l1.2.48c1.31-1,1.9-2.34,3.84-2.64l2.16.72v1a4.92,4.92,0,0,0-5.52,2.4c.55,1.19,1.58,2.79,1,4.32L949,577.12h-.72c0-1.68-1.3-2.82-.72-5.52s1.62-4.25,1-7.68l-7.44.48c.61,2,2.45,1.28,4.32,1.92l-.24.48-3.36.48.72,1,3.12.48-.48.24c-1.28.48-2.33.25-3.12,1.2a2.69,2.69,0,0,1,2.4,1.2l-3.84.48.24.48c4.38-.15,6.44,2.12,6.72,6l-4.32,4.56c2.13-1,13.09-11,13.92-13V566.8C959,560,966.14,552.25,961.72,545Z"
          transform="translate(-901.46 -488.08)"/>
    <path class="b6f46164-0227-4ce7-a31a-94f22a963628"
          d="M909.4,550.72l3.84,7.44h.24l2.88-7.44h.48c-.06,4.32,2.51,5.9,4.32,8.4l-1.44.48,1.68,2.64-.48.24c-.9-.59-.65-.66-1.68-.72l-1,.24a3.62,3.62,0,0,1,.24,3.6,3,3,0,0,1-1.68-.72c-.19-1.25,0-1.9-.72-2.4l-.72-.24c-1.51,2-5.6,6-5.76,8.64L914,566.8c2.76,1.07,4-.55,6-1.44a2.86,2.86,0,0,1,0-2.64c6,.89,7.94-3.77,13.44-4.8v.24c-1.59,2.08-4.69,2.91-7,4.32l-25,15.12c-.17-8.08.48-9.13,3.36-13.68l-2.4.48.48-1C904.82,559.34,907.66,555,909.4,550.72Z"
          transform="translate(-901.46 -488.08)"/>
    <path class="a2843569-b91c-4766-ad08-dfa08a5c6174"
          d="M909.4,553.12c-1.3,2.16-2.54,3.94-3.12,6.48l1,.72,1.44-1a21,21,0,0,0,1,4.32c.5.51.62.44,1.68.48a2.76,2.76,0,0,0,1-1l-1.68.24v-.24l1.92-3.84c-1.16.13-1.49.4-2.16-.24-.86-.69-1-1-1-2.64h.24l.72.48.24,1,1-1Z"
          transform="translate(-901.46 -488.08)"/>
    <path class="b6f46164-0227-4ce7-a31a-94f22a963628" d="M958.36,553.6h.48c-1.25,4-4.3,6.85-6.24,10.32l-.72-.24Z"
          transform="translate(-901.46 -488.08)"/>
    <path class="b6f46164-0227-4ce7-a31a-94f22a963628" d="M901.48,554.08l1,.72-1,.48Z"
          transform="translate(-901.46 -488.08)"/>
    <path class="a2843569-b91c-4766-ad08-dfa08a5c6174"
          d="M915.88,554.08,914,559.84l1.68,1,1.68-1.44v-1l-1.68,1.44c-.73-.3-.29,0-.72-.48-.25-1,.16-1.55,1-2.16,1.31.7,1.11.74,3.12.72l-.24-.72Z"
          transform="translate(-901.46 -488.08)"/>
    <path class="b6f46164-0227-4ce7-a31a-94f22a963628" d="M959.56,554.32c.84.57-2.86,6.66-3.36,8.16l-.72-.24V562Z"
          transform="translate(-901.46 -488.08)"/>
    <path class="a2843569-b91c-4766-ad08-dfa08a5c6174"
          d="M907.24,561a3.45,3.45,0,0,0-2.88,1.92v.24h.24l1-.48.48.24-.24,1.92C907.16,564.37,907.35,563,907.24,561Z"
          transform="translate(-901.46 -488.08)"/>
    <path class="b6f46164-0227-4ce7-a31a-94f22a963628" d="M915.4,564.4c1,.36.84.52,1.44,1.2l-.48.72h-.72l-.72-1Z"
          transform="translate(-901.46 -488.08)"/>
    <path class="b6f46164-0227-4ce7-a31a-94f22a963628"
          d="M946.12,564.88l1,.48-.48,1.92h-.24v-.48A2,2,0,0,1,946.12,564.88Z" transform="translate(-901.46 -488.08)"/>
    <path class="a2843569-b91c-4766-ad08-dfa08a5c6174"
          d="M906.76,565.84l-2.88,1-.24,4.08c.92-.82,1.25-2.36,1.68-3.84l2.64,1.2.24-.48c-.36-.91-.36-.85,0-1.92Z"
          transform="translate(-901.46 -488.08)"/>
    <path class="b6f46164-0227-4ce7-a31a-94f22a963628" d="M946.6,568l1.44.48-1,1.2-.72-1Z"
          transform="translate(-901.46 -488.08)"/>
    <path class="a2843569-b91c-4766-ad08-dfa08a5c6174" d="M950.92,569.68a9.41,9.41,0,0,0-1,4.8l1.2-1,.48-3.36Z"
          transform="translate(-901.46 -488.08)"/>
    <path class="a2843569-b91c-4766-ad08-dfa08a5c6174" d="M905.32,569.92l.48,1.2.48-.24.24-.72Z"
          transform="translate(-901.46 -488.08)"/>
    <path class="b6f46164-0227-4ce7-a31a-94f22a963628" d="M945.16,571.36l1.2.48c-.86.67-.66.76-1.44,0Z"
          transform="translate(-901.46 -488.08)"/>
    <path class="b6f46164-0227-4ce7-a31a-94f22a963628" d="M908.44,571.6v.48l1-.24Z"
          transform="translate(-901.46 -488.08)"/>
    <path class="a2843569-b91c-4766-ad08-dfa08a5c6174"
          d="M940.6,573.52c-2.39,1.88-3.62,3.59-3.84,7.68l.48.48,3.84.48c2.42-.39,3.67-2.59,5-4.08a4.76,4.76,0,0,0-1-3.12l-.48.24-2.4,5.28H942c.07-3.09,2-4.44,1.68-6.72h-.48Z"
          transform="translate(-901.46 -488.08)"/>
    <path class="a2843569-b91c-4766-ad08-dfa08a5c6174"
          d="M936.52,582.88l-1.68,1.2c.74,1.52,1.44,2.71,3.6,2.88a9.17,9.17,0,0,0,3.84-3.36Z"
          transform="translate(-901.46 -488.08)"/>
    <path class="b6f46164-0227-4ce7-a31a-94f22a963628" d="M933.4,583.6a7.23,7.23,0,0,0,2.88,3.36Z"
          transform="translate(-901.46 -488.08)"/>
    <path class="b6f46164-0227-4ce7-a31a-94f22a963628"
          d="M943.72,584.08c-1.72,1.86-3.55,2.62-6,3.84l2.4-.24C941.15,587.28,944.4,584.35,943.72,584.08Z"
          transform="translate(-901.46 -488.08)"/>
    <path class="a2843569-b91c-4766-ad08-dfa08a5c6174" d="M932.44,584.8c-.52,1.11-.65,1.13-.24,2.16h2.4l-.24-.72Z"
          transform="translate(-901.46 -488.08)"/>
</svg>